<svg id="svg" version="1.1" xmlns="http://www.w3.org/2000/svg" xmlns:xlink="http://www.w3.org/1999/xlink" width="400" height="400" viewBox="0, 0, 400,400"><g id="svgg"><path id="path0" d="M222.287 153.702 C 219.748 155.751,221.179 159.733,224.455 159.733 C 227.923 159.733,228.825 154.384,225.549 153.242 C 223.814 152.637,223.562 152.673,222.287 153.702 M183.001 154.211 C 178.212 156.785,177.814 162.489,182.232 165.220 C 187.112 168.236,193.260 162.344,190.600 157.201 C 189.180 154.454,185.351 152.947,183.001 154.211 M163.000 164.773 C 139.185 167.827,128.401 194.516,143.418 213.237 C 150.030 221.481,162.658 225.789,172.755 223.245 C 182.035 220.908,186.631 222.655,191.812 230.493 C 206.608 252.875,238.265 249.667,246.021 225.000 C 248.736 216.363,251.548 213.472,259.200 211.448 C 267.266 209.315,273.163 204.152,275.474 197.200 C 282.327 176.581,259.902 159.177,241.800 171.066 C 237.066 174.175,233.989 174.009,228.364 170.342 C 217.663 163.364,208.609 162.705,197.116 168.066 C 190.226 171.280,186.745 171.329,180.362 168.301 C 173.334 164.968,168.748 164.036,163.000 164.773 M245.720 173.443 C 249.922 175.555,249.253 178.871,244.400 179.984 C 238.610 181.313,237.570 182.321,239.669 184.571 C 240.912 185.903,245.515 188.000,247.195 188.000 C 250.377 188.000,259.600 195.022,259.600 197.445 C 259.600 197.944,259.780 198.464,260.000 198.600 C 262.286 200.013,257.823 208.772,253.942 210.490 C 253.314 210.768,252.800 211.151,252.800 211.340 C 252.800 211.530,252.549 211.589,252.242 211.472 C 251.936 211.354,250.631 211.583,249.342 211.981 C 244.820 213.377,240.354 211.959,235.133 207.470 L 232.067 204.833 231.643 206.049 C 231.410 206.718,231.103 208.138,230.962 209.206 C 230.342 213.873,226.341 217.148,219.482 218.602 C 212.720 220.035,209.495 219.057,208.363 215.230 C 207.726 213.079,207.996 210.000,208.820 210.000 C 211.149 210.000,210.434 197.894,207.805 192.810 C 207.423 192.071,206.866 190.732,206.567 189.834 C 205.974 188.054,205.985 189.775,206.645 202.535 C 207.116 211.636,204.947 217.064,200.092 218.940 C 193.574 221.458,184.440 218.146,181.670 212.260 L 180.920 210.667 180.644 211.768 C 180.492 212.373,180.188 213.078,179.970 213.334 C 179.751 213.590,179.136 214.410,178.603 215.155 C 175.638 219.300,166.545 220.894,161.192 218.206 C 152.861 214.023,149.484 206.529,153.862 201.940 C 155.946 199.755,158.857 200.068,163.131 202.937 C 164.310 203.728,164.992 203.968,165.271 203.689 C 166.093 202.867,165.081 201.591,161.374 198.780 C 153.135 192.533,151.421 188.750,154.153 182.843 C 156.704 177.329,169.009 174.540,173.367 178.489 C 177.356 182.104,174.970 185.118,168.518 184.616 C 162.428 184.143,161.107 186.061,164.886 189.887 C 166.034 191.049,167.115 192.000,167.290 192.000 C 169.095 192.000,178.743 199.749,180.084 202.275 C 181.157 204.299,181.365 204.370,181.913 202.900 C 182.297 201.872,182.522 200.975,183.547 196.400 C 183.769 195.410,184.142 193.755,184.375 192.723 C 184.609 191.690,184.800 189.062,184.800 186.882 C 184.800 181.172,186.949 178.474,190.238 180.056 C 192.875 181.324,193.200 182.507,193.200 190.833 C 193.200 198.687,193.474 200.400,194.728 200.400 C 196.672 200.400,197.418 197.738,197.978 188.800 L 198.366 182.600 199.634 181.460 C 201.293 179.969,202.907 180.230,204.626 182.268 L 205.853 183.721 206.363 182.490 C 207.151 180.586,207.985 180.089,210.800 179.842 C 212.230 179.717,214.496 179.506,215.836 179.375 C 221.619 178.807,230.800 187.951,230.800 194.279 C 230.800 194.980,230.980 195.664,231.200 195.800 C 231.420 195.936,231.600 196.562,231.600 197.191 C 231.600 199.507,231.890 199.620,234.066 198.156 C 236.466 196.541,238.896 196.355,241.730 197.570 C 242.718 197.994,243.633 198.234,243.763 198.103 C 244.491 197.376,243.546 196.615,239.406 194.594 C 230.891 190.438,228.152 186.372,230.106 180.789 C 231.917 175.614,241.276 171.211,245.720 173.443 M216.980 188.433 C 216.019 189.988,218.074 198.177,219.779 199.585 C 222.251 201.627,222.341 191.626,219.875 188.900 C 219.019 187.954,217.434 187.698,216.980 188.433 M258.122 221.582 C 254.582 223.741,254.533 228.658,258.028 230.971 C 263.782 234.779,269.776 226.598,264.576 222.033 C 262.856 220.523,260.168 220.335,258.122 221.582 " stroke="none" fill="#dd3428" fill-rule="evenodd"></path><path id="path1" d="M0.000 200.000 L 0.000 400.000 200.000 400.000 L 400.000 400.000 400.000 200.000 L 400.000 0.000 200.000 0.000 L 0.000 0.000 0.000 200.000 M226.126 152.847 C 228.740 154.183,229.146 156.934,227.040 159.040 C 223.888 162.192,219.161 159.078,220.603 154.800 C 221.321 152.668,223.956 151.737,226.126 152.847 M187.892 153.819 C 188.721 154.159,189.887 155.077,190.482 155.859 C 195.367 162.283,186.456 170.456,180.768 164.768 C 175.389 159.389,180.884 150.944,187.892 153.819 M285.502 159.586 C 287.067 162.032,286.820 162.089,288.933 158.800 C 289.628 157.718,290.101 157.400,291.016 157.400 L 292.200 157.400 292.200 161.756 C 292.200 165.470,292.097 166.178,291.500 166.554 C 290.615 167.112,289.418 166.441,289.359 165.354 C 289.282 163.919,289.196 163.888,288.219 164.942 C 287.004 166.253,286.663 166.260,285.671 165.000 C 284.648 163.699,284.476 163.737,284.325 165.300 C 284.214 166.450,284.061 166.600,283.000 166.600 L 281.800 166.600 281.684 163.300 L 281.568 160.000 280.184 160.000 L 278.800 160.000 278.800 163.213 C 278.800 166.690,278.526 167.119,276.616 166.640 C 275.692 166.408,275.627 166.208,275.517 163.299 C 275.400 160.207,275.400 160.206,274.200 160.000 C 273.315 159.849,272.965 159.545,272.865 158.843 C 272.657 157.378,273.399 157.189,278.949 157.294 L 284.097 157.390 285.502 159.586 M172.400 164.612 C 175.561 165.343,176.362 165.645,181.200 167.941 C 186.933 170.661,190.057 170.616,196.200 167.728 C 208.088 162.138,218.123 162.675,228.200 169.439 C 234.022 173.348,236.375 173.548,241.238 170.550 C 255.380 161.830,272.473 168.180,276.597 183.686 C 279.991 196.447,272.808 208.370,259.400 212.232 C 251.758 214.433,249.451 216.775,246.618 225.202 C 238.289 249.985,205.071 253.913,191.920 231.670 C 187.521 224.229,181.398 221.441,174.200 223.600 C 165.488 226.214,152.501 223.017,145.598 216.559 C 123.348 195.747,142.925 157.804,172.400 164.612 M264.233 220.820 C 269.505 224.079,267.203 232.520,261.026 232.580 C 254.876 232.640,252.366 224.433,257.532 221.157 C 259.780 219.731,262.268 219.606,264.233 220.820 " stroke="none" fill="#fbfbf3" fill-rule="evenodd"></path><path id="path2" d="M237.939 173.991 C 225.857 179.110,226.511 188.301,239.406 194.594 C 243.546 196.615,244.491 197.376,243.763 198.103 C 243.633 198.234,242.718 197.994,241.730 197.570 C 238.896 196.355,236.466 196.541,234.066 198.156 C 231.890 199.620,231.600 199.507,231.600 197.191 C 231.600 196.562,231.420 195.936,231.200 195.800 C 230.980 195.664,230.800 194.980,230.800 194.279 C 230.800 187.951,221.619 178.807,215.836 179.375 C 214.496 179.506,212.230 179.717,210.800 179.842 C 207.985 180.089,207.151 180.586,206.363 182.490 L 205.853 183.721 204.626 182.268 C 202.907 180.230,201.293 179.969,199.634 181.460 L 198.366 182.600 197.978 188.800 C 197.418 197.738,196.672 200.400,194.728 200.400 C 193.474 200.400,193.200 198.687,193.200 190.833 C 193.200 182.507,192.875 181.324,190.238 180.056 C 186.949 178.474,184.800 181.172,184.800 186.882 C 184.800 189.062,184.609 191.690,184.375 192.723 C 184.142 193.755,183.769 195.410,183.547 196.400 C 181.652 204.859,181.548 205.035,180.084 202.275 C 178.743 199.749,169.095 192.000,167.290 192.000 C 167.115 192.000,166.034 191.049,164.886 189.887 C 161.107 186.061,162.428 184.143,168.518 184.616 C 174.970 185.118,177.356 182.104,173.367 178.489 C 170.076 175.507,160.022 176.506,156.163 180.199 C 153.857 182.406,153.400 183.605,153.400 187.457 L 153.400 191.113 155.440 193.451 C 156.563 194.736,159.169 197.083,161.232 198.666 C 165.052 201.597,166.092 202.868,165.310 203.650 C 165.011 203.949,164.607 203.898,163.943 203.477 C 163.424 203.148,162.423 202.758,161.718 202.611 C 160.989 202.460,160.336 202.029,160.204 201.612 C 159.454 199.250,153.200 200.871,153.200 203.427 C 153.200 203.915,152.930 204.418,152.600 204.545 C 152.176 204.707,152.000 205.368,152.000 206.795 C 152.000 211.019,155.479 215.338,161.192 218.206 C 166.545 220.894,175.638 219.300,178.603 215.155 C 179.136 214.410,179.751 213.590,179.970 213.334 C 180.188 213.078,180.492 212.373,180.644 211.768 L 180.920 210.667 181.670 212.260 C 184.440 218.146,193.574 221.458,200.092 218.940 C 204.947 217.064,207.116 211.636,206.645 202.535 C 205.985 189.775,205.974 188.054,206.567 189.834 C 206.866 190.732,207.423 192.071,207.805 192.810 C 210.434 197.894,211.149 210.000,208.820 210.000 C 207.996 210.000,207.726 213.079,208.363 215.230 C 209.495 219.057,212.720 220.035,219.482 218.602 C 226.341 217.148,230.342 213.873,230.962 209.206 C 231.103 208.138,231.410 206.718,231.643 206.049 L 232.067 204.833 235.133 207.470 C 240.354 211.959,244.820 213.377,249.342 211.981 C 250.631 211.583,251.936 211.354,252.242 211.472 C 252.549 211.589,252.800 211.530,252.800 211.340 C 252.800 211.151,253.314 210.768,253.942 210.490 C 257.823 208.772,262.286 200.013,260.000 198.600 C 259.780 198.464,259.600 197.944,259.600 197.445 C 259.600 195.022,250.377 188.000,247.195 188.000 C 245.515 188.000,240.912 185.903,239.669 184.571 C 237.570 182.321,238.610 181.313,244.400 179.984 C 247.304 179.318,248.374 178.515,248.379 177.000 C 248.390 173.206,243.272 171.731,237.939 173.991 M219.875 188.900 C 222.341 191.626,222.251 201.627,219.779 199.585 C 218.074 198.177,216.019 189.988,216.980 188.433 C 217.434 187.698,219.019 187.954,219.875 188.900 " stroke="none" fill="#f9ca30" fill-rule="evenodd"></path><path id="path3" d="M273.422 157.964 C 272.991 158.661,273.675 159.554,274.734 159.677 C 275.782 159.798,275.802 159.857,275.916 163.100 L 276.032 166.400 277.200 166.400 L 278.368 166.400 278.484 163.100 C 278.599 159.830,278.610 159.799,279.700 159.673 C 280.564 159.574,280.800 159.338,280.800 158.573 C 280.800 157.554,274.022 156.994,273.422 157.964 M282.194 157.906 C 281.213 158.616,281.986 166.400,283.037 166.400 C 283.914 166.400,284.000 166.237,284.000 164.567 C 284.000 162.646,284.546 162.344,285.371 163.807 C 286.451 165.720,286.842 165.842,287.851 164.581 C 288.371 163.932,288.797 163.265,288.798 163.100 C 288.806 161.917,289.579 163.148,289.677 164.500 C 289.787 166.027,289.913 166.213,290.914 166.328 L 292.028 166.456 291.914 162.128 C 291.770 156.642,290.911 155.998,288.780 159.775 C 287.086 162.775,287.039 162.778,285.313 160.016 C 283.887 157.735,283.134 157.226,282.194 157.906 " stroke="none" fill="#2c2e28" fill-rule="evenodd"></path><path id="path4" d="M222.037 152.906 C 219.751 154.079,219.799 158.201,222.115 159.614 C 224.045 160.790,225.454 160.626,227.040 159.040 C 230.447 155.633,226.398 150.668,222.037 152.906 M225.549 153.242 C 228.825 154.384,227.923 159.733,224.455 159.733 C 221.179 159.733,219.748 155.751,222.287 153.702 C 223.562 152.673,223.814 152.637,225.549 153.242 M182.165 153.956 C 177.976 156.510,177.351 161.351,180.768 164.768 C 186.456 170.456,195.367 162.283,190.482 155.859 C 188.569 153.344,184.642 152.446,182.165 153.956 M188.687 155.039 C 192.595 158.020,191.797 163.715,187.200 165.648 C 183.552 167.182,179.200 164.127,179.200 160.033 C 179.200 154.893,184.700 151.998,188.687 155.039 M273.265 157.551 C 272.272 158.181,272.881 159.774,274.200 160.000 C 275.391 160.203,275.402 160.228,275.636 163.402 L 275.871 166.600 275.836 163.200 L 275.800 159.800 274.700 159.673 C 274.095 159.604,273.573 159.379,273.540 159.173 C 273.329 157.863,273.475 157.795,277.000 157.576 L 280.600 157.351 277.200 157.282 C 275.330 157.244,273.559 157.365,273.265 157.551 M281.700 157.482 C 281.069 157.604,280.800 157.939,280.800 158.601 C 280.800 159.335,280.554 159.575,279.700 159.673 C 278.611 159.799,278.599 159.832,278.484 163.075 C 278.371 166.289,278.348 166.353,277.284 166.533 C 276.283 166.702,276.292 166.711,277.400 166.658 L 278.600 166.600 278.716 163.300 L 278.832 160.000 280.200 160.000 L 281.568 160.000 281.684 163.300 L 281.800 166.600 283.000 166.600 C 284.061 166.600,284.214 166.450,284.325 165.300 C 284.476 163.737,284.648 163.699,285.671 165.000 C 286.639 166.229,286.957 166.243,288.100 165.100 C 288.595 164.605,289.135 164.245,289.300 164.300 C 289.465 164.355,289.600 164.040,289.600 163.600 C 289.600 163.160,289.420 162.800,289.200 162.800 C 288.980 162.800,288.799 162.935,288.798 163.100 C 288.797 163.265,288.371 163.932,287.851 164.581 C 286.842 165.842,286.451 165.720,285.371 163.807 C 284.546 162.344,284.000 162.646,284.000 164.567 C 284.000 166.237,283.914 166.400,283.037 166.400 C 281.986 166.400,281.213 158.616,282.194 157.906 C 283.134 157.226,283.887 157.735,285.313 160.016 C 287.039 162.778,287.086 162.775,288.780 159.775 C 290.874 156.063,291.738 156.654,292.029 162.000 L 292.258 166.200 292.229 161.800 L 292.200 157.400 291.016 157.400 C 290.101 157.400,289.628 157.718,288.933 158.800 C 286.817 162.093,287.073 162.042,285.441 159.491 C 283.988 157.219,283.744 157.089,281.700 157.482 M159.800 164.586 C 133.413 170.165,127.244 205.261,150.059 220.007 C 155.860 223.756,167.770 225.529,174.200 223.600 C 181.398 221.441,187.521 224.229,191.920 231.670 C 205.071 253.913,238.289 249.985,246.618 225.202 C 249.451 216.775,251.758 214.433,259.400 212.232 C 272.808 208.370,279.991 196.447,276.597 183.686 C 272.473 168.180,255.380 161.830,241.238 170.550 C 236.375 173.548,234.022 173.348,228.200 169.439 C 218.123 162.675,208.088 162.138,196.200 167.728 C 190.057 170.616,186.933 170.661,181.200 167.941 C 173.014 164.057,166.862 163.093,159.800 164.586 M172.400 165.255 C 174.958 165.844,176.112 166.285,180.362 168.301 C 186.745 171.329,190.226 171.280,197.116 168.066 C 208.609 162.705,217.663 163.364,228.364 170.342 C 233.989 174.009,237.066 174.175,241.800 171.066 C 259.902 159.177,282.327 176.581,275.474 197.200 C 273.163 204.152,267.266 209.315,259.200 211.448 C 251.548 213.472,248.736 216.363,246.021 225.000 C 238.265 249.667,206.608 252.875,191.812 230.493 C 186.631 222.655,182.035 220.908,172.755 223.245 C 158.016 226.958,141.749 217.183,137.524 202.075 C 131.619 180.962,151.133 160.360,172.400 165.255 M289.212 165.451 C 289.193 166.163,290.291 166.884,291.081 166.679 C 291.657 166.530,291.626 166.484,290.920 166.446 C 290.436 166.421,289.856 166.085,289.632 165.700 C 289.408 165.315,289.219 165.203,289.212 165.451 M152.893 187.200 C 152.893 187.970,152.975 188.285,153.076 187.900 C 153.176 187.515,153.176 186.885,153.076 186.500 C 152.975 186.115,152.893 186.430,152.893 187.200 M160.273 201.845 C 160.390 202.150,160.632 202.400,160.810 202.400 C 160.989 202.400,161.464 202.524,161.867 202.675 C 162.494 202.910,162.526 202.859,162.087 202.318 C 161.395 201.466,159.986 201.099,160.273 201.845 M152.679 203.357 C 152.515 203.774,152.475 204.209,152.591 204.324 C 152.955 204.689,153.276 204.091,153.124 203.331 C 152.983 202.635,152.962 202.636,152.679 203.357 M257.532 221.157 C 252.366 224.433,254.876 232.640,261.026 232.580 C 263.550 232.556,265.387 231.354,266.438 229.040 C 269.221 222.912,263.187 217.571,257.532 221.157 M264.576 222.033 C 266.529 223.747,267.000 225.638,266.102 228.152 C 263.886 234.355,255.235 232.501,255.499 225.879 C 255.675 221.464,261.242 219.105,264.576 222.033 " stroke="none" fill="#ec9992" fill-rule="evenodd"></path></g></svg>